<mxfile host="app.diagrams.net" agent="Mozilla/5.0 (Windows NT 10.0; Win64; x64) AppleWebKit/537.36 (KHTML, like Gecko) Chrome/140.0.0.0 Safari/537.36" version="28.2.1">
  <diagram name="Trang-1" id="vsZBVbilmV84LcYe_fsJ">
    <mxGraphModel dx="1042" dy="527" grid="0" gridSize="10" guides="1" tooltips="1" connect="1" arrows="1" fold="1" page="1" pageScale="1" pageWidth="827" pageHeight="1169" math="0" shadow="0">
      <root>
        <mxCell id="0" />
        <mxCell id="1" parent="0" />
        <mxCell id="UOkTp4S55ELY-NB1bVy0-1" value="&lt;font style=&quot;font-size: 10px;&quot;&gt;Student&lt;/font&gt;" style="whiteSpace=wrap;html=1;align=center;fillColor=#dae8fc;strokeColor=#6c8ebf;" parent="1" vertex="1">
          <mxGeometry x="169" y="120" width="80" height="40" as="geometry" />
        </mxCell>
        <mxCell id="UOkTp4S55ELY-NB1bVy0-5" value="&lt;font style=&quot;font-size: 10px;&quot;&gt;Course&lt;/font&gt;" style="whiteSpace=wrap;html=1;align=center;fillColor=#dae8fc;strokeColor=#6c8ebf;" parent="1" vertex="1">
          <mxGeometry x="571" y="210" width="58" height="37.5" as="geometry" />
        </mxCell>
        <mxCell id="UOkTp4S55ELY-NB1bVy0-6" value="&lt;font style=&quot;font-size: 10px;&quot;&gt;Teacher&lt;/font&gt;" style="whiteSpace=wrap;html=1;align=center;fillColor=#dae8fc;strokeColor=#6c8ebf;" parent="1" vertex="1">
          <mxGeometry x="560" y="400" width="58" height="35" as="geometry" />
        </mxCell>
        <mxCell id="UOkTp4S55ELY-NB1bVy0-36" value="" style="endArrow=none;html=1;rounded=0;exitX=0.5;exitY=1;exitDx=0;exitDy=0;" parent="1" source="UOkTp4S55ELY-NB1bVy0-135" target="UOkTp4S55ELY-NB1bVy0-72" edge="1">
          <mxGeometry relative="1" as="geometry">
            <mxPoint x="410" y="380" as="sourcePoint" />
            <mxPoint x="430" y="335" as="targetPoint" />
          </mxGeometry>
        </mxCell>
        <mxCell id="UOkTp4S55ELY-NB1bVy0-38" value="N" style="resizable=0;html=1;whiteSpace=wrap;align=right;verticalAlign=bottom;" parent="UOkTp4S55ELY-NB1bVy0-36" connectable="0" vertex="1">
          <mxGeometry x="1" relative="1" as="geometry">
            <mxPoint x="11" y="-8" as="offset" />
          </mxGeometry>
        </mxCell>
        <mxCell id="UOkTp4S55ELY-NB1bVy0-41" value="" style="endArrow=none;html=1;rounded=0;exitX=1;exitY=0.5;exitDx=0;exitDy=0;entryX=0;entryY=0.5;entryDx=0;entryDy=0;" parent="1" source="UOkTp4S55ELY-NB1bVy0-123" target="UOkTp4S55ELY-NB1bVy0-6" edge="1">
          <mxGeometry relative="1" as="geometry">
            <mxPoint x="470" y="422.5" as="sourcePoint" />
            <mxPoint x="580" y="523.5" as="targetPoint" />
          </mxGeometry>
        </mxCell>
        <mxCell id="UOkTp4S55ELY-NB1bVy0-43" value="1" style="resizable=0;html=1;whiteSpace=wrap;align=right;verticalAlign=bottom;" parent="UOkTp4S55ELY-NB1bVy0-41" connectable="0" vertex="1">
          <mxGeometry x="1" relative="1" as="geometry">
            <mxPoint x="-3" y="20" as="offset" />
          </mxGeometry>
        </mxCell>
        <mxCell id="UOkTp4S55ELY-NB1bVy0-63" value="" style="endArrow=none;html=1;rounded=0;exitX=0.5;exitY=1;exitDx=0;exitDy=0;entryX=0.5;entryY=0;entryDx=0;entryDy=0;" parent="1" source="UOkTp4S55ELY-NB1bVy0-127" target="UOkTp4S55ELY-NB1bVy0-71" edge="1">
          <mxGeometry relative="1" as="geometry">
            <mxPoint x="470" y="260" as="sourcePoint" />
            <mxPoint x="200.0000000000001" y="240" as="targetPoint" />
            <Array as="points" />
          </mxGeometry>
        </mxCell>
        <mxCell id="UOkTp4S55ELY-NB1bVy0-65" value="N" style="resizable=0;html=1;whiteSpace=wrap;align=right;verticalAlign=bottom;" parent="UOkTp4S55ELY-NB1bVy0-63" connectable="0" vertex="1">
          <mxGeometry x="1" relative="1" as="geometry">
            <mxPoint x="-7" y="-2" as="offset" />
          </mxGeometry>
        </mxCell>
        <mxCell id="UOkTp4S55ELY-NB1bVy0-66" value="" style="endArrow=none;html=1;rounded=0;exitX=1;exitY=0.5;exitDx=0;exitDy=0;entryX=0;entryY=0.5;entryDx=0;entryDy=0;" parent="1" source="UOkTp4S55ELY-NB1bVy0-116" target="UOkTp4S55ELY-NB1bVy0-5" edge="1">
          <mxGeometry relative="1" as="geometry">
            <mxPoint x="530" y="246.25" as="sourcePoint" />
            <mxPoint x="560" y="275" as="targetPoint" />
          </mxGeometry>
        </mxCell>
        <mxCell id="UOkTp4S55ELY-NB1bVy0-68" value="1" style="resizable=0;html=1;whiteSpace=wrap;align=right;verticalAlign=bottom;" parent="UOkTp4S55ELY-NB1bVy0-66" connectable="0" vertex="1">
          <mxGeometry x="1" relative="1" as="geometry">
            <mxPoint x="-6" as="offset" />
          </mxGeometry>
        </mxCell>
        <mxCell id="UOkTp4S55ELY-NB1bVy0-71" value="Registration" style="shape=associativeEntity;whiteSpace=wrap;html=1;align=center;fillColor=#e1d5e7;strokeColor=#9673a6;" parent="1" vertex="1">
          <mxGeometry x="310" y="210" width="100" height="40" as="geometry" />
        </mxCell>
        <mxCell id="UOkTp4S55ELY-NB1bVy0-72" value="Class" style="whiteSpace=wrap;html=1;align=center;fillColor=#dae8fc;strokeColor=#6c8ebf;" parent="1" vertex="1">
          <mxGeometry x="179" y="402.5" width="60" height="35" as="geometry" />
        </mxCell>
        <mxCell id="UOkTp4S55ELY-NB1bVy0-73" value="&lt;font style=&quot;font-size: 10px;&quot;&gt;&lt;u&gt;Mã HV&lt;/u&gt;&lt;/font&gt;" style="ellipse;whiteSpace=wrap;html=1;align=center;" parent="1" vertex="1">
          <mxGeometry x="270" y="50" width="65" height="30" as="geometry" />
        </mxCell>
        <mxCell id="UOkTp4S55ELY-NB1bVy0-74" value="&lt;span style=&quot;font-size: 10px;&quot;&gt;Họ tên&lt;/span&gt;" style="ellipse;whiteSpace=wrap;html=1;align=center;" parent="1" vertex="1">
          <mxGeometry x="60" y="65" width="60" height="30" as="geometry" />
        </mxCell>
        <mxCell id="UOkTp4S55ELY-NB1bVy0-75" value="&lt;span style=&quot;font-size: 10px;&quot;&gt;Ngày sinh&lt;/span&gt;" style="ellipse;whiteSpace=wrap;html=1;align=center;" parent="1" vertex="1">
          <mxGeometry x="190" y="35" width="60" height="30" as="geometry" />
        </mxCell>
        <mxCell id="UOkTp4S55ELY-NB1bVy0-77" value="&lt;span style=&quot;font-size: 10px;&quot;&gt;SĐT&lt;/span&gt;" style="ellipse;whiteSpace=wrap;html=1;align=center;" parent="1" vertex="1">
          <mxGeometry x="120" y="35" width="60" height="30" as="geometry" />
        </mxCell>
        <mxCell id="UOkTp4S55ELY-NB1bVy0-78" value="&lt;font style=&quot;font-size: 10px;&quot;&gt;Email&lt;/font&gt;" style="ellipse;shape=doubleEllipse;margin=3;whiteSpace=wrap;html=1;align=center;" parent="1" vertex="1">
          <mxGeometry x="50" y="132.5" width="60" height="35" as="geometry" />
        </mxCell>
        <mxCell id="UOkTp4S55ELY-NB1bVy0-84" value="" style="endArrow=none;html=1;rounded=0;exitX=0;exitY=1;exitDx=0;exitDy=0;entryX=1;entryY=0;entryDx=0;entryDy=0;" parent="1" source="UOkTp4S55ELY-NB1bVy0-73" target="UOkTp4S55ELY-NB1bVy0-1" edge="1">
          <mxGeometry width="50" height="50" relative="1" as="geometry">
            <mxPoint x="460" y="290" as="sourcePoint" />
            <mxPoint x="510" y="240" as="targetPoint" />
          </mxGeometry>
        </mxCell>
        <mxCell id="UOkTp4S55ELY-NB1bVy0-85" value="" style="endArrow=none;html=1;rounded=0;entryX=1;entryY=1;entryDx=0;entryDy=0;exitX=0;exitY=0;exitDx=0;exitDy=0;" parent="1" source="UOkTp4S55ELY-NB1bVy0-1" target="UOkTp4S55ELY-NB1bVy0-74" edge="1">
          <mxGeometry width="50" height="50" relative="1" as="geometry">
            <mxPoint x="460" y="290" as="sourcePoint" />
            <mxPoint x="510" y="240" as="targetPoint" />
          </mxGeometry>
        </mxCell>
        <mxCell id="UOkTp4S55ELY-NB1bVy0-86" value="" style="endArrow=none;html=1;rounded=0;entryX=0.5;entryY=1;entryDx=0;entryDy=0;exitX=0.25;exitY=0;exitDx=0;exitDy=0;" parent="1" source="UOkTp4S55ELY-NB1bVy0-1" target="UOkTp4S55ELY-NB1bVy0-77" edge="1">
          <mxGeometry width="50" height="50" relative="1" as="geometry">
            <mxPoint x="179" y="129" as="sourcePoint" />
            <mxPoint x="130" y="100" as="targetPoint" />
          </mxGeometry>
        </mxCell>
        <mxCell id="UOkTp4S55ELY-NB1bVy0-87" value="" style="endArrow=none;html=1;rounded=0;entryX=0.5;entryY=1;entryDx=0;entryDy=0;exitX=0.5;exitY=0;exitDx=0;exitDy=0;" parent="1" source="UOkTp4S55ELY-NB1bVy0-1" target="UOkTp4S55ELY-NB1bVy0-75" edge="1">
          <mxGeometry width="50" height="50" relative="1" as="geometry">
            <mxPoint x="180" y="135" as="sourcePoint" />
            <mxPoint x="150" y="80" as="targetPoint" />
          </mxGeometry>
        </mxCell>
        <mxCell id="UOkTp4S55ELY-NB1bVy0-88" value="" style="endArrow=none;html=1;rounded=0;exitX=0;exitY=0.5;exitDx=0;exitDy=0;" parent="1" source="UOkTp4S55ELY-NB1bVy0-1" edge="1">
          <mxGeometry width="50" height="50" relative="1" as="geometry">
            <mxPoint x="200" y="145" as="sourcePoint" />
            <mxPoint x="110" y="150" as="targetPoint" />
          </mxGeometry>
        </mxCell>
        <mxCell id="UOkTp4S55ELY-NB1bVy0-89" value="&lt;font style=&quot;font-size: 10px;&quot;&gt;&lt;u&gt;Mã GV&lt;/u&gt;&lt;/font&gt;" style="ellipse;whiteSpace=wrap;html=1;align=center;" parent="1" vertex="1">
          <mxGeometry x="550" y="477.5" width="60" height="30" as="geometry" />
        </mxCell>
        <mxCell id="UOkTp4S55ELY-NB1bVy0-90" value="&lt;span style=&quot;font-size: 10px;&quot;&gt;Họ tên&lt;/span&gt;" style="ellipse;whiteSpace=wrap;html=1;align=center;" parent="1" vertex="1">
          <mxGeometry x="630" y="492.5" width="60" height="30" as="geometry" />
        </mxCell>
        <mxCell id="UOkTp4S55ELY-NB1bVy0-91" value="&lt;span style=&quot;font-size: 10px;&quot;&gt;Chuyên môn&lt;/span&gt;" style="ellipse;whiteSpace=wrap;html=1;align=center;" parent="1" vertex="1">
          <mxGeometry x="670" y="447.5" width="80" height="30" as="geometry" />
        </mxCell>
        <mxCell id="UOkTp4S55ELY-NB1bVy0-92" value="&lt;span style=&quot;font-size: 10px;&quot;&gt;SĐT&lt;/span&gt;" style="ellipse;whiteSpace=wrap;html=1;align=center;" parent="1" vertex="1">
          <mxGeometry x="680" y="405" width="60" height="30" as="geometry" />
        </mxCell>
        <mxCell id="UOkTp4S55ELY-NB1bVy0-93" value="&lt;font style=&quot;font-size: 10px;&quot;&gt;Email&lt;/font&gt;" style="ellipse;shape=doubleEllipse;margin=3;whiteSpace=wrap;html=1;align=center;" parent="1" vertex="1">
          <mxGeometry x="650" y="350" width="60" height="35" as="geometry" />
        </mxCell>
        <mxCell id="UOkTp4S55ELY-NB1bVy0-94" value="" style="endArrow=none;html=1;rounded=0;entryX=0.5;entryY=0;entryDx=0;entryDy=0;exitX=0;exitY=0.5;exitDx=0;exitDy=0;" parent="1" source="UOkTp4S55ELY-NB1bVy0-93" target="UOkTp4S55ELY-NB1bVy0-6" edge="1">
          <mxGeometry width="50" height="50" relative="1" as="geometry">
            <mxPoint x="600" y="360" as="sourcePoint" />
            <mxPoint x="590" y="303.5" as="targetPoint" />
          </mxGeometry>
        </mxCell>
        <mxCell id="UOkTp4S55ELY-NB1bVy0-95" value="" style="endArrow=none;html=1;rounded=0;entryX=1;entryY=0.5;entryDx=0;entryDy=0;exitX=0;exitY=0.5;exitDx=0;exitDy=0;" parent="1" source="UOkTp4S55ELY-NB1bVy0-92" target="UOkTp4S55ELY-NB1bVy0-6" edge="1">
          <mxGeometry width="50" height="50" relative="1" as="geometry">
            <mxPoint x="711" y="372.5" as="sourcePoint" />
            <mxPoint x="630" y="417.5" as="targetPoint" />
          </mxGeometry>
        </mxCell>
        <mxCell id="UOkTp4S55ELY-NB1bVy0-96" value="" style="endArrow=none;html=1;rounded=0;entryX=1;entryY=1;entryDx=0;entryDy=0;exitX=0;exitY=0.5;exitDx=0;exitDy=0;" parent="1" source="UOkTp4S55ELY-NB1bVy0-91" target="UOkTp4S55ELY-NB1bVy0-6" edge="1">
          <mxGeometry width="50" height="50" relative="1" as="geometry">
            <mxPoint x="712" y="402.5" as="sourcePoint" />
            <mxPoint x="650" y="417.5" as="targetPoint" />
          </mxGeometry>
        </mxCell>
        <mxCell id="UOkTp4S55ELY-NB1bVy0-97" value="" style="endArrow=none;html=1;rounded=0;entryX=0.75;entryY=1;entryDx=0;entryDy=0;exitX=0;exitY=0;exitDx=0;exitDy=0;" parent="1" source="UOkTp4S55ELY-NB1bVy0-90" target="UOkTp4S55ELY-NB1bVy0-6" edge="1">
          <mxGeometry width="50" height="50" relative="1" as="geometry">
            <mxPoint x="682" y="465.5" as="sourcePoint" />
            <mxPoint x="630" y="442.5" as="targetPoint" />
          </mxGeometry>
        </mxCell>
        <mxCell id="UOkTp4S55ELY-NB1bVy0-98" value="" style="endArrow=none;html=1;rounded=0;entryX=0.25;entryY=1;entryDx=0;entryDy=0;exitX=0.5;exitY=0;exitDx=0;exitDy=0;" parent="1" source="UOkTp4S55ELY-NB1bVy0-89" target="UOkTp4S55ELY-NB1bVy0-6" edge="1">
          <mxGeometry width="50" height="50" relative="1" as="geometry">
            <mxPoint x="633" y="518.5" as="sourcePoint" />
            <mxPoint x="610" y="462.5" as="targetPoint" />
          </mxGeometry>
        </mxCell>
        <mxCell id="UOkTp4S55ELY-NB1bVy0-99" value="&lt;font style=&quot;font-size: 10px;&quot;&gt;&lt;u&gt;Mã KH&lt;/u&gt;&lt;/font&gt;" style="ellipse;whiteSpace=wrap;html=1;align=center;" parent="1" vertex="1">
          <mxGeometry x="530" y="155" width="60" height="30" as="geometry" />
        </mxCell>
        <mxCell id="UOkTp4S55ELY-NB1bVy0-100" value="&lt;span style=&quot;font-size: 10px;&quot;&gt;Tên KH&lt;/span&gt;" style="ellipse;whiteSpace=wrap;html=1;align=center;" parent="1" vertex="1">
          <mxGeometry x="600" y="132.5" width="60" height="30" as="geometry" />
        </mxCell>
        <mxCell id="UOkTp4S55ELY-NB1bVy0-101" value="&lt;span style=&quot;font-size: 10px;&quot;&gt;Thời lượng&lt;/span&gt;" style="ellipse;whiteSpace=wrap;html=1;align=center;" parent="1" vertex="1">
          <mxGeometry x="650" y="180" width="60" height="30" as="geometry" />
        </mxCell>
        <mxCell id="UOkTp4S55ELY-NB1bVy0-102" value="&lt;span style=&quot;font-size: 10px;&quot;&gt;Học phí&lt;/span&gt;" style="ellipse;whiteSpace=wrap;html=1;align=center;" parent="1" vertex="1">
          <mxGeometry x="660" y="225" width="60" height="30" as="geometry" />
        </mxCell>
        <mxCell id="UOkTp4S55ELY-NB1bVy0-103" value="" style="endArrow=none;html=1;rounded=0;entryX=0.25;entryY=0;entryDx=0;entryDy=0;exitX=0.5;exitY=1;exitDx=0;exitDy=0;" parent="1" source="UOkTp4S55ELY-NB1bVy0-99" target="UOkTp4S55ELY-NB1bVy0-5" edge="1">
          <mxGeometry width="50" height="50" relative="1" as="geometry">
            <mxPoint x="593" y="172.5" as="sourcePoint" />
            <mxPoint x="582" y="217.5" as="targetPoint" />
          </mxGeometry>
        </mxCell>
        <mxCell id="UOkTp4S55ELY-NB1bVy0-104" value="" style="endArrow=none;html=1;rounded=0;exitX=0.5;exitY=1;exitDx=0;exitDy=0;entryX=0.5;entryY=0;entryDx=0;entryDy=0;" parent="1" source="UOkTp4S55ELY-NB1bVy0-100" target="UOkTp4S55ELY-NB1bVy0-5" edge="1">
          <mxGeometry width="50" height="50" relative="1" as="geometry">
            <mxPoint x="570" y="187.5" as="sourcePoint" />
            <mxPoint x="610" y="207.5" as="targetPoint" />
          </mxGeometry>
        </mxCell>
        <mxCell id="UOkTp4S55ELY-NB1bVy0-105" value="" style="endArrow=none;html=1;rounded=0;exitX=0;exitY=0.5;exitDx=0;exitDy=0;entryX=0.75;entryY=0;entryDx=0;entryDy=0;" parent="1" target="UOkTp4S55ELY-NB1bVy0-5" edge="1">
          <mxGeometry width="50" height="50" relative="1" as="geometry">
            <mxPoint x="650" y="187.5" as="sourcePoint" />
            <mxPoint x="610" y="232.5" as="targetPoint" />
          </mxGeometry>
        </mxCell>
        <mxCell id="UOkTp4S55ELY-NB1bVy0-106" value="" style="endArrow=none;html=1;rounded=0;exitX=0;exitY=0.5;exitDx=0;exitDy=0;entryX=1;entryY=0.5;entryDx=0;entryDy=0;" parent="1" target="UOkTp4S55ELY-NB1bVy0-5" edge="1">
          <mxGeometry width="50" height="50" relative="1" as="geometry">
            <mxPoint x="660" y="232.5" as="sourcePoint" />
            <mxPoint x="640" y="237.5" as="targetPoint" />
          </mxGeometry>
        </mxCell>
        <mxCell id="UOkTp4S55ELY-NB1bVy0-107" value="&lt;font style=&quot;font-size: 10px;&quot;&gt;&lt;u&gt;Mã lớp&lt;/u&gt;&lt;/font&gt;" style="ellipse;whiteSpace=wrap;html=1;align=center;" parent="1" vertex="1">
          <mxGeometry x="80" y="467.5" width="60" height="30" as="geometry" />
        </mxCell>
        <mxCell id="UOkTp4S55ELY-NB1bVy0-108" value="&lt;span style=&quot;font-size: 10px;&quot;&gt;Tên lớp&lt;/span&gt;" style="ellipse;whiteSpace=wrap;html=1;align=center;" parent="1" vertex="1">
          <mxGeometry x="100" y="512.5" width="60" height="30" as="geometry" />
        </mxCell>
        <mxCell id="UOkTp4S55ELY-NB1bVy0-109" value="&lt;span style=&quot;font-size: 10px;&quot;&gt;Ngày khai giảng&lt;/span&gt;" style="ellipse;whiteSpace=wrap;html=1;align=center;" parent="1" vertex="1">
          <mxGeometry x="160" y="497.5" width="90" height="30" as="geometry" />
        </mxCell>
        <mxCell id="UOkTp4S55ELY-NB1bVy0-111" value="&lt;span style=&quot;font-size: 10px;&quot;&gt;Ngày kết thúc&lt;/span&gt;" style="ellipse;whiteSpace=wrap;html=1;align=center;" parent="1" vertex="1">
          <mxGeometry x="249" y="477.5" width="90" height="30" as="geometry" />
        </mxCell>
        <mxCell id="UOkTp4S55ELY-NB1bVy0-112" value="" style="endArrow=none;html=1;rounded=0;entryX=0;entryY=0.5;entryDx=0;entryDy=0;exitX=0.5;exitY=0;exitDx=0;exitDy=0;" parent="1" source="UOkTp4S55ELY-NB1bVy0-107" target="UOkTp4S55ELY-NB1bVy0-72" edge="1">
          <mxGeometry width="50" height="50" relative="1" as="geometry">
            <mxPoint x="250" y="442.5" as="sourcePoint" />
            <mxPoint x="300" y="392.5" as="targetPoint" />
          </mxGeometry>
        </mxCell>
        <mxCell id="UOkTp4S55ELY-NB1bVy0-113" value="" style="endArrow=none;html=1;rounded=0;entryX=0.25;entryY=1;entryDx=0;entryDy=0;exitX=0.5;exitY=0;exitDx=0;exitDy=0;" parent="1" source="UOkTp4S55ELY-NB1bVy0-108" target="UOkTp4S55ELY-NB1bVy0-72" edge="1">
          <mxGeometry width="50" height="50" relative="1" as="geometry">
            <mxPoint x="130" y="489.5" as="sourcePoint" />
            <mxPoint x="199" y="442.5" as="targetPoint" />
          </mxGeometry>
        </mxCell>
        <mxCell id="UOkTp4S55ELY-NB1bVy0-114" value="" style="endArrow=none;html=1;rounded=0;entryX=0.5;entryY=1;entryDx=0;entryDy=0;exitX=0.5;exitY=0;exitDx=0;exitDy=0;" parent="1" source="UOkTp4S55ELY-NB1bVy0-109" target="UOkTp4S55ELY-NB1bVy0-72" edge="1">
          <mxGeometry width="50" height="50" relative="1" as="geometry">
            <mxPoint x="170" y="527.5" as="sourcePoint" />
            <mxPoint x="234" y="452.5" as="targetPoint" />
          </mxGeometry>
        </mxCell>
        <mxCell id="UOkTp4S55ELY-NB1bVy0-115" value="" style="endArrow=none;html=1;rounded=0;entryX=0.75;entryY=1;entryDx=0;entryDy=0;exitX=0.5;exitY=0;exitDx=0;exitDy=0;" parent="1" source="UOkTp4S55ELY-NB1bVy0-111" target="UOkTp4S55ELY-NB1bVy0-72" edge="1">
          <mxGeometry width="50" height="50" relative="1" as="geometry">
            <mxPoint x="200" y="567.5" as="sourcePoint" />
            <mxPoint x="215" y="452.5" as="targetPoint" />
          </mxGeometry>
        </mxCell>
        <mxCell id="UOkTp4S55ELY-NB1bVy0-117" value="" style="endArrow=none;html=1;rounded=0;exitX=1;exitY=0.5;exitDx=0;exitDy=0;entryX=0;entryY=0.5;entryDx=0;entryDy=0;" parent="1" source="UOkTp4S55ELY-NB1bVy0-71" target="UOkTp4S55ELY-NB1bVy0-116" edge="1">
          <mxGeometry relative="1" as="geometry">
            <mxPoint x="260" y="260" as="sourcePoint" />
            <mxPoint x="390" y="260" as="targetPoint" />
          </mxGeometry>
        </mxCell>
        <mxCell id="UOkTp4S55ELY-NB1bVy0-118" value="N" style="resizable=0;html=1;whiteSpace=wrap;align=left;verticalAlign=bottom;" parent="UOkTp4S55ELY-NB1bVy0-117" connectable="0" vertex="1">
          <mxGeometry x="-1" relative="1" as="geometry">
            <mxPoint x="3" y="-1" as="offset" />
          </mxGeometry>
        </mxCell>
        <mxCell id="UOkTp4S55ELY-NB1bVy0-116" value="&lt;span style=&quot;font-size: 10px;&quot;&gt;Tham chiếu&lt;/span&gt;" style="shape=rhombus;perimeter=rhombusPerimeter;whiteSpace=wrap;html=1;align=center;fillColor=#fff2cc;strokeColor=#d6b656;" parent="1" vertex="1">
          <mxGeometry x="449" y="210" width="90" height="40" as="geometry" />
        </mxCell>
        <mxCell id="UOkTp4S55ELY-NB1bVy0-120" value="" style="endArrow=none;html=1;rounded=0;exitX=0.5;exitY=1;exitDx=0;exitDy=0;entryX=0.5;entryY=0;entryDx=0;entryDy=0;" parent="1" source="UOkTp4S55ELY-NB1bVy0-131" target="UOkTp4S55ELY-NB1bVy0-72" edge="1">
          <mxGeometry relative="1" as="geometry">
            <mxPoint x="240" y="310" as="sourcePoint" />
            <mxPoint x="400" y="310" as="targetPoint" />
          </mxGeometry>
        </mxCell>
        <mxCell id="UOkTp4S55ELY-NB1bVy0-122" value="1" style="resizable=0;html=1;whiteSpace=wrap;align=right;verticalAlign=bottom;" parent="UOkTp4S55ELY-NB1bVy0-120" connectable="0" vertex="1">
          <mxGeometry x="1" relative="1" as="geometry">
            <mxPoint x="-4" y="-2" as="offset" />
          </mxGeometry>
        </mxCell>
        <mxCell id="UOkTp4S55ELY-NB1bVy0-124" value="" style="endArrow=none;html=1;rounded=0;exitX=1;exitY=0.5;exitDx=0;exitDy=0;entryX=0;entryY=0.5;entryDx=0;entryDy=0;" parent="1" source="UOkTp4S55ELY-NB1bVy0-72" target="UOkTp4S55ELY-NB1bVy0-123" edge="1">
          <mxGeometry relative="1" as="geometry">
            <mxPoint x="239" y="420" as="sourcePoint" />
            <mxPoint x="560" y="423" as="targetPoint" />
          </mxGeometry>
        </mxCell>
        <mxCell id="UOkTp4S55ELY-NB1bVy0-125" value="N" style="resizable=0;html=1;whiteSpace=wrap;align=left;verticalAlign=bottom;" parent="UOkTp4S55ELY-NB1bVy0-124" connectable="0" vertex="1">
          <mxGeometry x="-1" relative="1" as="geometry">
            <mxPoint x="10" y="18" as="offset" />
          </mxGeometry>
        </mxCell>
        <mxCell id="UOkTp4S55ELY-NB1bVy0-123" value="&lt;font style=&quot;font-size: 10px;&quot;&gt;Phụ trách&lt;/font&gt;" style="shape=rhombus;perimeter=rhombusPerimeter;whiteSpace=wrap;html=1;align=center;fillColor=#fff2cc;strokeColor=#d6b656;" parent="1" vertex="1">
          <mxGeometry x="379" y="400" width="70" height="37.5" as="geometry" />
        </mxCell>
        <mxCell id="UOkTp4S55ELY-NB1bVy0-128" value="" style="endArrow=none;html=1;rounded=0;exitX=1;exitY=0.5;exitDx=0;exitDy=0;entryX=0;entryY=0.5;entryDx=0;entryDy=0;" parent="1" source="UOkTp4S55ELY-NB1bVy0-1" target="UOkTp4S55ELY-NB1bVy0-127" edge="1">
          <mxGeometry relative="1" as="geometry">
            <mxPoint x="249" y="140" as="sourcePoint" />
            <mxPoint x="370" y="210" as="targetPoint" />
            <Array as="points" />
          </mxGeometry>
        </mxCell>
        <mxCell id="UOkTp4S55ELY-NB1bVy0-129" value="1" style="resizable=0;html=1;whiteSpace=wrap;align=left;verticalAlign=bottom;" parent="UOkTp4S55ELY-NB1bVy0-128" connectable="0" vertex="1">
          <mxGeometry x="-1" relative="1" as="geometry">
            <mxPoint x="10" y="20" as="offset" />
          </mxGeometry>
        </mxCell>
        <mxCell id="UOkTp4S55ELY-NB1bVy0-127" value="&lt;span style=&quot;font-size: 10px;&quot;&gt;Thực hiện&lt;/span&gt;" style="shape=rhombus;perimeter=rhombusPerimeter;whiteSpace=wrap;html=1;align=center;fillColor=#fff2cc;strokeColor=#d6b656;" parent="1" vertex="1">
          <mxGeometry x="325" y="122.5" width="70" height="37.5" as="geometry" />
        </mxCell>
        <mxCell id="UOkTp4S55ELY-NB1bVy0-132" value="" style="endArrow=none;html=1;rounded=0;exitX=0;exitY=0.5;exitDx=0;exitDy=0;entryX=0.5;entryY=0;entryDx=0;entryDy=0;" parent="1" source="UOkTp4S55ELY-NB1bVy0-71" target="UOkTp4S55ELY-NB1bVy0-131" edge="1">
          <mxGeometry relative="1" as="geometry">
            <mxPoint x="209" y="160" as="sourcePoint" />
            <mxPoint x="209" y="403" as="targetPoint" />
          </mxGeometry>
        </mxCell>
        <mxCell id="UOkTp4S55ELY-NB1bVy0-133" value="N" style="resizable=0;html=1;whiteSpace=wrap;align=left;verticalAlign=bottom;" parent="UOkTp4S55ELY-NB1bVy0-132" connectable="0" vertex="1">
          <mxGeometry x="-1" relative="1" as="geometry">
            <mxPoint x="-16" as="offset" />
          </mxGeometry>
        </mxCell>
        <mxCell id="UOkTp4S55ELY-NB1bVy0-131" value="&lt;span style=&quot;font-size: 10px;&quot;&gt;Xếp lớp&lt;/span&gt;" style="shape=rhombus;perimeter=rhombusPerimeter;whiteSpace=wrap;html=1;align=center;fillColor=#fff2cc;strokeColor=#d6b656;" parent="1" vertex="1">
          <mxGeometry x="174" y="260" width="70" height="37.5" as="geometry" />
        </mxCell>
        <mxCell id="UOkTp4S55ELY-NB1bVy0-136" value="" style="endArrow=none;html=1;rounded=0;exitX=0.5;exitY=1;exitDx=0;exitDy=0;" parent="1" source="UOkTp4S55ELY-NB1bVy0-5" target="UOkTp4S55ELY-NB1bVy0-135" edge="1">
          <mxGeometry relative="1" as="geometry">
            <mxPoint x="600" y="248" as="sourcePoint" />
            <mxPoint x="239" y="407" as="targetPoint" />
          </mxGeometry>
        </mxCell>
        <mxCell id="UOkTp4S55ELY-NB1bVy0-137" value="1" style="resizable=0;html=1;whiteSpace=wrap;align=left;verticalAlign=bottom;" parent="UOkTp4S55ELY-NB1bVy0-136" connectable="0" vertex="1">
          <mxGeometry x="-1" relative="1" as="geometry">
            <mxPoint x="2" y="21" as="offset" />
          </mxGeometry>
        </mxCell>
        <mxCell id="UOkTp4S55ELY-NB1bVy0-135" value="&lt;span style=&quot;font-size: 10px;&quot;&gt;Mở lớp&lt;/span&gt;" style="shape=rhombus;perimeter=rhombusPerimeter;whiteSpace=wrap;html=1;align=center;fillColor=#fff2cc;strokeColor=#d6b656;" parent="1" vertex="1">
          <mxGeometry x="390" y="300" width="70" height="37.5" as="geometry" />
        </mxCell>
      </root>
    </mxGraphModel>
  </diagram>
</mxfile>
